<svg width="48" height="48" viewBox="0 0 48 48" fill="none" xmlns="http://www.w3.org/2000/svg">
<path d="M41.2099 25.8857L25.2968 41.618C25.0499 41.862 24.7141 42 24.3644 42H7.32134C6.14676 42 5.55803 40.5964 6.38902 39.7763C11.2559 34.9607 22.3405 23.9985 22.3405 23.9985C22.3405 23.9985 11.2544 13.0393 6.38902 8.22365C5.55793 7.40365 6.14676 6 7.32134 6H24.3645C24.7142 6 25.05 6.13795 25.2969 6.38193L32.519 13.5213L41.21 22.1113C42.2633 23.1542 42.2633 24.8428 41.2099 25.8857Z" fill="#FFCE00"/>
<path d="M31.2109 25.8857L15.3181 41.618C15.0715 41.862 14.7361 42 14.387 42H7.31965C6.14657 42 5.55859 40.5964 6.38852 39.7763C11.2491 34.9607 22.3196 23.9985 22.3196 23.9985C22.3196 23.9985 11.2477 13.0393 6.38852 8.22365C5.5585 7.40365 6.14657 6 7.31965 6H14.3871C14.7362 6 15.0716 6.13795 15.3182 6.38193L31.211 22.1112C32.263 23.1542 32.263 24.8428 31.2109 25.8857Z" fill="#FFA81E"/>
<path d="M31.202 25.8856L15.1294 41.618C14.88 41.862 14.5408 42 14.1877 42H10C10.3531 42 10.6923 41.862 10.9417 41.618L27.479 25.4308C28.5429 24.3879 28.5429 23.6088 27.479 22.566L10.9417 6.38193C10.6923 6.13786 10.3531 6 10 6H14.1877C14.5408 6 14.88 6.13795 15.1294 6.38193L31.202 22.1113C32.266 23.1542 32.266 24.8427 31.202 25.8856Z" fill="#FF9900"/>
</svg>
