<svg width="24" height="24" viewBox="0 0 24 24" fill="none" xmlns="http://www.w3.org/2000/svg">
<path d="M17 5H7C5.34315 5 4 6.34315 4 8V17C4 18.6569 5.34315 20 7 20H17C18.6569 20 20 18.6569 20 17V8C20 6.34315 18.6569 5 17 5Z" stroke="url(#paint0_linear_472_1543)" stroke-width="1.5" stroke-linecap="round" stroke-linejoin="round"/>
<path d="M4 9L20 9" stroke="url(#paint1_linear_472_1543)" stroke-width="1.5" stroke-linecap="round" stroke-linejoin="round"/>
<path d="M8 6V4M16 6V4" stroke="url(#paint2_linear_472_1543)" stroke-width="1.5" stroke-linecap="round" stroke-linejoin="round"/>
<circle cx="8" cy="13" r="1" fill="url(#paint3_linear_472_1543)"/>
<circle cx="12" cy="13" r="1" fill="url(#paint4_linear_472_1543)"/>
<circle cx="16" cy="13" r="1" fill="url(#paint5_linear_472_1543)"/>
<circle cx="8" cy="16" r="1" fill="url(#paint6_linear_472_1543)"/>
<circle cx="12" cy="16" r="1" fill="url(#paint7_linear_472_1543)"/>
<circle cx="16" cy="16" r="1" fill="url(#paint8_linear_472_1543)"/>
<defs>
<linearGradient id="paint0_linear_472_1543" x1="20" y1="16.3889" x2="12.9296" y2="20.0955" gradientUnits="userSpaceOnUse">
<stop stop-color="#5EBEDD"/>
<stop offset="1" stop-color="#6BDCC6"/>
</linearGradient>
<linearGradient id="paint1_linear_472_1543" x1="20" y1="9.75926" x2="19.8566" y2="10.8872" gradientUnits="userSpaceOnUse">
<stop stop-color="#5EBEDD"/>
<stop offset="1" stop-color="#6BDCC6"/>
</linearGradient>
<linearGradient id="paint2_linear_472_1543" x1="16" y1="5.51852" x2="15.0736" y2="7.33975" gradientUnits="userSpaceOnUse">
<stop stop-color="#5EBEDD"/>
<stop offset="1" stop-color="#6BDCC6"/>
</linearGradient>
<linearGradient id="paint3_linear_472_1543" x1="9" y1="13.5185" x2="8.09251" y2="13.9645" gradientUnits="userSpaceOnUse">
<stop stop-color="#5EBEDD"/>
<stop offset="1" stop-color="#6BDCC6"/>
</linearGradient>
<linearGradient id="paint4_linear_472_1543" x1="13" y1="13.5185" x2="12.0925" y2="13.9645" gradientUnits="userSpaceOnUse">
<stop stop-color="#5EBEDD"/>
<stop offset="1" stop-color="#6BDCC6"/>
</linearGradient>
<linearGradient id="paint5_linear_472_1543" x1="17" y1="13.5185" x2="16.0925" y2="13.9645" gradientUnits="userSpaceOnUse">
<stop stop-color="#5EBEDD"/>
<stop offset="1" stop-color="#6BDCC6"/>
</linearGradient>
<linearGradient id="paint6_linear_472_1543" x1="9" y1="16.5185" x2="8.09251" y2="16.9645" gradientUnits="userSpaceOnUse">
<stop stop-color="#5EBEDD"/>
<stop offset="1" stop-color="#6BDCC6"/>
</linearGradient>
<linearGradient id="paint7_linear_472_1543" x1="13" y1="16.5185" x2="12.0925" y2="16.9645" gradientUnits="userSpaceOnUse">
<stop stop-color="#5EBEDD"/>
<stop offset="1" stop-color="#6BDCC6"/>
</linearGradient>
<linearGradient id="paint8_linear_472_1543" x1="17" y1="16.5185" x2="16.0925" y2="16.9645" gradientUnits="userSpaceOnUse">
<stop stop-color="#5EBEDD"/>
<stop offset="1" stop-color="#6BDCC6"/>
</linearGradient>
</defs>
</svg>
