<svg width="20" height="15" viewBox="0 0 20 15" fill="none" xmlns="http://www.w3.org/2000/svg">
<path d="M19.7937 6.45583C18.1678 2.53417 14.3235 0 10 0C5.67649 0 1.83216 2.53417 0.206259 6.45583C-0.0687529 7.11917 -0.0687529 7.88 0.206259 8.54417C1.83216 12.4658 5.67649 15 10 15C14.3235 15 18.1678 12.4658 19.7937 8.54417C20.0688 7.88083 20.0688 7.11917 19.7937 6.45583ZM10 10.8333C8.16159 10.8333 6.66653 9.33833 6.66653 7.5C6.66653 5.66167 8.16159 4.16667 10 4.16667C11.8384 4.16667 13.3335 5.66167 13.3335 7.5C13.3335 9.33833 11.8384 10.8333 10 10.8333Z" fill="white"/>
</svg>
