<svg width="24" height="24" viewBox="0 0 24 24" fill="none" xmlns="http://www.w3.org/2000/svg">
<rect x="10" y="10" width="4" height="4" rx="2" fill="#1456FF"/>
<path d="M16 12L18 10V12V14L16 12Z" fill="#1456FF"/>
<path d="M20 12H16M16 12L18 10V14L16 12Z" stroke="#1456FF" stroke-width="1.5" stroke-linecap="round" stroke-linejoin="round"/>
<path d="M8 12L6 14V12V10L8 12Z" fill="#1456FF"/>
<path d="M4 12H8M8 12L6 14V10L8 12Z" stroke="#1456FF" stroke-width="1.5" stroke-linecap="round" stroke-linejoin="round"/>
<path d="M12 8L14 6H12H10L12 8Z" fill="#1456FF"/>
<path d="M12 4V8M12 8L14 6H10L12 8Z" stroke="#1456FF" stroke-width="1.5" stroke-linecap="round" stroke-linejoin="round"/>
<path d="M12 16L14 18H12H10L12 16Z" fill="#1456FF"/>
<path d="M12 20V16M12 16L14 18H10L12 16Z" stroke="#1456FF" stroke-width="1.5" stroke-linecap="round" stroke-linejoin="round"/>
</svg>
