<svg width="38" height="32" viewBox="0 0 38 32" fill="none" xmlns="http://www.w3.org/2000/svg">
<g opacity="0.3">
<path d="M6.49895 4.70623C7.15157 2.48596 9.26585 1.64895 11.3154 2.79947L13.0725 3.7858C13.4008 3.9701 13.589 4.42438 13.4845 4.78003L6.30555 29.2032C6.14242 29.7582 5.61394 29.9674 5.10163 29.6798C2.33102 28.1246 0.742249 24.2909 1.62448 21.2895L6.49895 4.70623Z" fill="url(#paint0_linear_472_1052)"/>
<path d="M31.5015 4.81487C30.8489 2.5946 28.7346 1.7576 26.6851 2.90812L24.928 3.89445C24.5997 4.07874 24.4114 4.53302 24.516 4.88868L31.6949 29.3119C31.8581 29.8669 32.3865 30.0761 32.8989 29.7885C35.6695 28.2332 37.2582 24.3995 36.376 21.3981L31.5015 4.81487Z" fill="url(#paint1_linear_472_1052)"/>
<path fill-rule="evenodd" clip-rule="evenodd" d="M8.20945 2.41891C11.2293 1.31976 14.5685 2.87684 15.6676 5.89672L18.8217 14.5626L21.9759 5.89672C23.075 2.87684 26.4141 1.31976 29.434 2.41891C29.736 2.52883 29.8917 2.86274 29.7818 3.16473L24.3088 18.2017C23.4465 20.5708 21.2056 22.0397 18.8217 22.032C16.4379 22.0397 14.197 20.5708 13.3347 18.2017L7.86167 3.16473C7.75175 2.86274 7.90746 2.52883 8.20945 2.41891Z" fill="url(#paint2_linear_472_1052)"/>
</g>
<defs>
<linearGradient id="paint0_linear_472_1052" x1="8.87212" y1="24.4855" x2="4.55173" y2="24.0786" gradientUnits="userSpaceOnUse">
<stop stop-color="#5EBEDD"/>
<stop offset="1" stop-color="#6BDCC6"/>
</linearGradient>
<linearGradient id="paint1_linear_472_1052" x1="29.1284" y1="24.5941" x2="33.4488" y2="24.1872" gradientUnits="userSpaceOnUse">
<stop stop-color="#6BDCC6"/>
<stop offset="1" stop-color="#5EBEDD"/>
</linearGradient>
<linearGradient id="paint2_linear_472_1052" x1="29.8171" y1="17.2255" x2="20.2362" y2="22.4119" gradientUnits="userSpaceOnUse">
<stop stop-color="#5EBEDD"/>
<stop offset="1" stop-color="#6BDCC6"/>
</linearGradient>
</defs>
</svg>
