<svg width="30" height="30" viewBox="0 0 30 30" fill="none" xmlns="http://www.w3.org/2000/svg">
<g filter="url(#filter0_d_198_3107)">
<path fill-rule="evenodd" clip-rule="evenodd" d="M25.8987 1.99177L18.3808 21.0761C18.2686 21.3614 18.0693 21.6041 17.8112 21.7695C17.5531 21.935 17.2494 22.0149 16.9433 21.9977C16.6372 21.9806 16.3443 21.8673 16.1063 21.6741C15.8683 21.4808 15.6974 21.2174 15.6177 20.9214L13.3782 12.6218L5.07863 10.3823C4.78257 10.3026 4.51918 10.1317 4.32593 9.89366C4.13268 9.65566 4.01942 9.36277 4.00228 9.05667C3.98514 8.75057 4.06499 8.44686 4.23046 8.18877C4.39593 7.93068 4.63859 7.73136 4.9239 7.61917L24.0082 0.101308C24.2724 -0.00268991 24.5613 -0.0272704 24.8392 0.0305847C25.1172 0.0884398 25.3722 0.226212 25.573 0.426985C25.7738 0.627757 25.9116 0.88279 25.9694 1.16077C26.0273 1.43875 26.0027 1.72757 25.8987 1.99177V1.99177Z" fill="white"/>
</g>
<defs>
<filter id="filter0_d_198_3107" x="0" y="0" width="30" height="30" filterUnits="userSpaceOnUse" color-interpolation-filters="sRGB">
<feFlood flood-opacity="0" result="BackgroundImageFix"/>
<feColorMatrix in="SourceAlpha" type="matrix" values="0 0 0 0 0 0 0 0 0 0 0 0 0 0 0 0 0 0 127 0" result="hardAlpha"/>
<feOffset dy="4"/>
<feGaussianBlur stdDeviation="2"/>
<feComposite in2="hardAlpha" operator="out"/>
<feColorMatrix type="matrix" values="0 0 0 0 0 0 0 0 0 0 0 0 0 0 0 0 0 0 0.25 0"/>
<feBlend mode="normal" in2="BackgroundImageFix" result="effect1_dropShadow_198_3107"/>
<feBlend mode="normal" in="SourceGraphic" in2="effect1_dropShadow_198_3107" result="shape"/>
</filter>
</defs>
</svg>
