<svg width="22" height="22" viewBox="0 0 22 22" fill="none" xmlns="http://www.w3.org/2000/svg">
<path fill-rule="evenodd" clip-rule="evenodd" d="M21.8987 1.99177L14.3808 21.0761C14.2686 21.3614 14.0693 21.6041 13.8112 21.7695C13.5531 21.935 13.2494 22.0149 12.9433 21.9977C12.6372 21.9806 12.3443 21.8673 12.1063 21.6741C11.8683 21.4808 11.6974 21.2174 11.6177 20.9214L9.3782 12.6218L1.07863 10.3823C0.782574 10.3026 0.519176 10.1317 0.325926 9.89366C0.132676 9.65566 0.0194209 9.36277 0.00227993 9.05667C-0.014861 8.75057 0.0649856 8.44686 0.230456 8.18877C0.395926 7.93068 0.638587 7.73136 0.923904 7.61917L20.0082 0.101308C20.2724 -0.00268991 20.5613 -0.0272704 20.8392 0.0305847C21.1172 0.0884398 21.3722 0.226212 21.573 0.426985C21.7738 0.627757 21.9116 0.88279 21.9694 1.16077C22.0273 1.43875 22.0027 1.72757 21.8987 1.99177Z" fill="white"/>
</svg>
