<svg width="24" height="24" viewBox="0 0 24 24" fill="none" xmlns="http://www.w3.org/2000/svg">
<path d="M16.8213 4.81778L13.4828 9.77778C13.2519 10.1156 13.6959 10.5244 14.0155 10.24L17.3008 7.37778C17.3896 7.30667 17.5139 7.36 17.5139 7.48444V16.4267C17.5139 16.5511 17.3541 16.6044 17.283 16.5156L7.33851 4.60444C7.01887 4.21333 6.55716 4 6.04218 4H5.68701C4.7636 4 4 4.76444 4 5.70667V18.2933C4 19.2356 4.7636 20 5.70477 20C6.29079 20 6.84129 19.6978 7.16093 19.1822L10.4994 14.2222C10.7303 13.8844 10.2863 13.4756 9.9667 13.76L6.68147 16.6044C6.59267 16.6756 6.46837 16.6222 6.46837 16.4978V7.57333C6.46837 7.44889 6.62819 7.39556 6.69922 7.48444L16.6437 19.3956C16.9634 19.7867 17.4428 20 17.9401 20H18.2952C19.2364 20 20 19.2356 20 18.2933V5.70667C20 4.76444 19.2364 4 18.2952 4C17.6915 4 17.141 4.30222 16.8213 4.81778Z" fill="#BDBDBD"/>
</svg>
