<svg width="21" height="21" viewBox="0 0 21 21" fill="none" xmlns="http://www.w3.org/2000/svg">
<path d="M20.4525 17.7736L19.0046 16.3259C20.2281 14.5598 20.8401 12.5909 20.8401 10.4202C20.8401 9.00921 20.5662 7.65972 20.0183 6.37208C19.4708 5.08422 18.7307 3.97419 17.7983 3.04171C16.8658 2.10923 15.7559 1.36909 14.4683 0.821536C13.1804 0.273828 11.831 0 10.42 0C9.00908 0 7.65961 0.273828 6.37198 0.821536C5.08415 1.36909 3.97413 2.10923 3.04167 3.04171C2.1091 3.97419 1.36907 5.08443 0.821472 6.37208C0.273824 7.65988 0 9.00921 0 10.4202C0 11.8312 0.273824 13.1802 0.821472 14.4682C1.36902 15.7558 2.1091 16.8657 3.04167 17.7982C3.97413 18.731 5.08436 19.4708 6.37198 20.0187C7.65976 20.5663 9.00908 20.8401 10.42 20.8401C12.591 20.8401 14.5596 20.228 16.3258 19.0046L17.7737 20.4376C18.1289 20.8124 18.5723 21 19.1056 21C19.6187 21 20.063 20.8125 20.4376 20.4376C20.8124 20.0628 21 19.6187 21 19.1056C21.0002 18.5829 20.8176 18.1387 20.4525 17.7736ZM15.1045 15.1044C13.807 16.4021 12.2456 17.051 10.42 17.051C8.59466 17.051 7.03326 16.4019 5.73563 15.1044C4.438 13.8068 3.78921 12.2456 3.78921 10.4199C3.78921 8.59458 4.43816 7.0329 5.73563 5.73551C7.03301 4.43781 8.59466 3.78906 10.42 3.78906C12.2454 3.78906 13.8068 4.43807 15.1045 5.73551C16.4023 7.0329 17.0511 8.59458 17.0511 10.4199C17.0511 12.2456 16.4021 13.8068 15.1045 15.1044Z" fill="white"/>
</svg>
