<svg width="25" height="24" viewBox="0 0 25 24" fill="none" xmlns="http://www.w3.org/2000/svg">
<path fill-rule="evenodd" clip-rule="evenodd" d="M5.04806 10.1314C4.70566 10.3676 4.5 10.7653 4.5 11.1911V17.7265C4.5 18.4299 5.05103 19.0001 5.73077 19.0001H9.42308C10.1028 19.0001 10.6538 18.4299 10.6538 17.7265V8.6439C10.6538 7.62669 9.55828 7.01996 8.74037 7.5842L5.04806 10.1314ZM8.19231 15.6039H6.96154C6.50838 15.6039 6.14103 15.984 6.14103 16.4529C6.14103 16.9218 6.50838 17.302 6.96154 17.302H8.19231C8.64546 17.302 9.01282 16.9218 9.01282 16.4529C9.01282 15.984 8.64546 15.6039 8.19231 15.6039Z" fill="white"/>
<path fill-rule="evenodd" clip-rule="evenodd" d="M13.5257 4.01875C12.846 4.01875 12.2949 4.58896 12.2949 5.29235V17.7264C12.2949 18.4298 12.846 19 13.5257 19H19.2693C19.949 19 20.5 18.4298 20.5 17.7264V5.29235C20.5 4.58896 19.949 4.01875 19.2693 4.01875H17.8334C17.8334 3.45611 17.3773 3 16.8146 3H15.9803C15.4177 3 14.9616 3.45611 14.9616 4.01875H13.5257ZM14.7565 12.2075H18.0385C18.4917 12.2075 18.859 12.5876 18.859 13.0566C18.859 13.5255 18.4917 13.9056 18.0385 13.9056H14.7565C14.3033 13.9056 13.9359 13.5255 13.9359 13.0566C13.9359 12.5876 14.3033 12.2075 14.7565 12.2075ZM18.0385 15.6037H14.7565C14.3033 15.6037 13.9359 15.9839 13.9359 16.4528C13.9359 16.9217 14.3033 17.3019 14.7565 17.3019H18.0385C18.4917 17.3019 18.859 16.9217 18.859 16.4528C18.859 15.9839 18.4917 15.6037 18.0385 15.6037Z" fill="white"/>
</svg>
