<svg width="24" height="24" viewBox="0 0 24 24" fill="none" xmlns="http://www.w3.org/2000/svg">
<path fill-rule="evenodd" clip-rule="evenodd" d="M4.54806 10.1313C4.20566 10.3675 4 10.7651 4 11.191V17.7264C4 18.4298 4.55103 19 5.23077 19H8.92308C9.60281 19 10.1538 18.4298 10.1538 17.7264V8.64378C10.1538 7.62657 9.05828 7.01983 8.24037 7.58408L4.54806 10.1313ZM7.69231 15.6037H6.46154C6.00838 15.6037 5.64103 15.9839 5.64103 16.4528C5.64103 16.9217 6.00838 17.3019 6.46154 17.3019H7.69231C8.14546 17.3019 8.51282 16.9217 8.51282 16.4528C8.51282 15.9839 8.14546 15.6037 7.69231 15.6037Z" fill="white"/>
<path fill-rule="evenodd" clip-rule="evenodd" d="M13.0257 4.01875C12.346 4.01875 11.7949 4.58896 11.7949 5.29235V17.7264C11.7949 18.4298 12.346 19 13.0257 19H18.7693C19.449 19 20 18.4298 20 17.7264V5.29235C20 4.58896 19.449 4.01875 18.7693 4.01875H17.3334C17.3334 3.45611 16.8773 3 16.3146 3H15.4803C14.9177 3 14.4616 3.45611 14.4616 4.01875H13.0257ZM14.2565 12.2075H17.5385C17.9917 12.2075 18.359 12.5876 18.359 13.0566C18.359 13.5255 17.9917 13.9056 17.5385 13.9056H14.2565C13.8033 13.9056 13.4359 13.5255 13.4359 13.0566C13.4359 12.5876 13.8033 12.2075 14.2565 12.2075ZM17.5385 15.6037H14.2565C13.8033 15.6037 13.4359 15.9839 13.4359 16.4528C13.4359 16.9217 13.8033 17.3019 14.2565 17.3019H17.5385C17.9917 17.3019 18.359 16.9217 18.359 16.4528C18.359 15.9839 17.9917 15.6037 17.5385 15.6037Z" fill="white"/>
</svg>
