<svg width="65" height="18" viewBox="0 0 65 18" fill="none" xmlns="http://www.w3.org/2000/svg">
<g filter="url(#filter0_i_398_12189)">
<path d="M11.4241 6.396C10.8521 6 10.2581 5.66267 9.64212 5.384C9.04078 5.10533 8.36612 4.95133 7.61812 4.922C7.44212 4.922 7.24412 4.92933 7.02412 4.944C6.80412 4.95867 6.59145 4.99533 6.38612 5.054C6.19545 5.11267 6.03412 5.208 5.90212 5.34C5.77012 5.45733 5.70412 5.61867 5.70412 5.824C5.71878 6 5.77012 6.13933 5.85812 6.242C5.94612 6.34467 6.05612 6.43267 6.18812 6.506C6.32012 6.57933 6.46678 6.63067 6.62812 6.66C6.78945 6.68933 6.94345 6.704 7.09012 6.704C7.25145 6.704 7.39812 6.69667 7.53012 6.682C7.67678 6.66733 7.83078 6.66 7.99212 6.66C8.69612 6.66 9.40012 6.75533 10.1041 6.946C10.8228 7.13667 11.4681 7.43733 12.0401 7.848C12.6121 8.244 13.0741 8.75 13.4261 9.366C13.7928 9.982 13.9761 10.7153 13.9761 11.566C13.9468 12.4167 13.7415 13.194 13.3601 13.898C12.9788 14.5873 12.4801 15.174 11.8641 15.658C11.2628 16.142 10.5881 16.516 9.84012 16.78C9.09212 17.044 8.33678 17.176 7.57412 17.176C6.97278 17.176 6.35678 17.1173 5.72612 17C5.09545 16.8827 4.47945 16.714 3.87812 16.494C3.29145 16.2593 2.72678 15.966 2.18412 15.614C1.64145 15.262 1.16478 14.8513 0.754117 14.382L3.70212 11.214C4.17145 11.7273 4.72145 12.1307 5.35212 12.424C5.99745 12.7173 6.65745 12.864 7.33212 12.864C7.53745 12.864 7.77212 12.8493 8.03612 12.82C8.31478 12.776 8.57145 12.71 8.80612 12.622C9.05545 12.534 9.26078 12.424 9.42212 12.292C9.58345 12.1453 9.66412 11.9767 9.66412 11.786C9.66412 11.61 9.61278 11.4707 9.51012 11.368C9.42212 11.2507 9.29745 11.17 9.13612 11.126C8.98945 11.0673 8.81345 11.0307 8.60812 11.016C8.41745 10.9867 8.22678 10.972 8.03612 10.972C7.87478 10.972 7.71345 10.9793 7.55212 10.994C7.39078 10.994 7.25145 10.994 7.13412 10.994C6.43012 10.9793 5.73345 10.84 5.04412 10.576C4.35478 10.312 3.73878 9.95267 3.19612 9.498C2.65345 9.02867 2.21345 8.47133 1.87612 7.826C1.53878 7.18067 1.37012 6.46933 1.37012 5.692C1.37012 4.82667 1.56812 4.07133 1.96412 3.426C2.36012 2.78067 2.86612 2.25267 3.48212 1.842C4.09812 1.41667 4.78012 1.10133 5.52812 0.895999C6.27612 0.690666 7.00945 0.587999 7.72812 0.587999C8.87212 0.617333 9.97212 0.844666 11.0281 1.27C12.0988 1.69533 13.0521 2.31133 13.8881 3.118L11.4241 6.396ZM28.3048 0.785999V17.044H23.5748V11.368L19.4388 10.994V16.978H14.7968V0.697999H19.5048V6.352L23.5748 6.682V0.785999H28.3048ZM29.686 17L29.84 0.742H34.526L34.372 17H29.686ZM47.7209 5.142L41.5169 12.71H47.4789V17.132H35.4889V12.776L41.7589 5.208H36.0609V0.807999H47.7209V5.142ZM64.9123 8.816C64.9123 9.97467 64.6703 11.06 64.1863 12.072C63.717 13.084 63.0863 13.964 62.2943 14.712C61.5023 15.4453 60.5783 16.032 59.5223 16.472C58.481 16.912 57.3956 17.132 56.2663 17.132C55.181 17.132 54.125 16.912 53.0983 16.472C52.0863 16.032 51.1843 15.438 50.3923 14.69C49.6003 13.942 48.9623 13.0693 48.4783 12.072C48.009 11.0747 47.7743 10.0113 47.7743 8.882C47.7743 7.738 48.009 6.66733 48.4783 5.67C48.9623 4.658 49.6003 3.78533 50.3923 3.052C51.1843 2.304 52.0936 1.71 53.1203 1.27C54.1616 0.829999 55.2396 0.609999 56.3543 0.609999C57.469 0.609999 58.5396 0.829999 59.5663 1.27C60.6076 1.69533 61.517 2.27467 62.2943 3.008C63.0863 3.74133 63.717 4.60667 64.1863 5.604C64.6703 6.60133 64.9123 7.672 64.9123 8.816ZM56.2223 12.27C56.6623 12.27 57.0876 12.182 57.4983 12.006C57.9236 11.83 58.2976 11.588 58.6203 11.28C58.943 10.9573 59.1996 10.5907 59.3903 10.18C59.5956 9.76933 59.6983 9.33667 59.6983 8.882C59.6983 8.42733 59.603 7.98733 59.4123 7.562C59.2216 7.13667 58.9576 6.76267 58.6203 6.44C58.2976 6.11733 57.9236 5.86067 57.4983 5.67C57.073 5.47933 56.6256 5.384 56.1563 5.384C55.687 5.384 55.2323 5.48667 54.7923 5.692C54.367 5.88267 53.9856 6.14667 53.6483 6.484C53.3256 6.80667 53.069 7.18067 52.8783 7.606C52.6876 8.03133 52.5923 8.486 52.5923 8.97C52.5923 9.42467 52.7023 9.85 52.9223 10.246C53.1423 10.642 53.421 10.994 53.7583 11.302C54.0956 11.5953 54.477 11.83 54.9023 12.006C55.3423 12.182 55.7823 12.27 56.2223 12.27Z" fill="#642DFF"/>
</g>
<defs>
<filter id="filter0_i_398_12189" x="0.753906" y="0.588013" width="64.1582" height="16.588" filterUnits="userSpaceOnUse" color-interpolation-filters="sRGB">
<feFlood flood-opacity="0" result="BackgroundImageFix"/>
<feBlend mode="normal" in="SourceGraphic" in2="BackgroundImageFix" result="shape"/>
<feColorMatrix in="SourceAlpha" type="matrix" values="0 0 0 0 0 0 0 0 0 0 0 0 0 0 0 0 0 0 127 0" result="hardAlpha"/>
<feOffset dy="-2"/>
<feComposite in2="hardAlpha" operator="arithmetic" k2="-1" k3="1"/>
<feColorMatrix type="matrix" values="0 0 0 0 0 0 0 0 0 0 0 0 0 0 0 0 0 0 0.15 0"/>
<feBlend mode="normal" in2="shape" result="effect1_innerShadow_398_12189"/>
</filter>
</defs>
</svg>
