<svg width="24" height="24" viewBox="0 0 24 24" fill="none" xmlns="http://www.w3.org/2000/svg">
<path d="M23 11.9V21.8C23 22.46 22.56 22.9 21.9 22.9H20.8C20.14 22.9 19.7 22.46 19.7 21.8V20.7H4.3V21.8C4.3 22.46 3.86 22.9 3.2 22.9H2.1C1.44 22.9 1 22.46 1 21.8V11.9L3.75 5.52C4.08 4.75 4.85 4.2 5.73 4.2H8.7V2H15.3V4.2H18.27C19.15 4.2 19.92 4.75 20.25 5.52L23 11.9ZM3.42 11.9H20.58L18.27 6.4H5.73L3.42 11.9ZM5.95 17.4C6.83 17.4 7.6 16.63 7.6 15.75C7.6 14.87 6.83 14.1 5.95 14.1C5.07 14.1 4.3 14.87 4.3 15.75C4.3 16.63 5.07 17.4 5.95 17.4ZM18.05 17.4C18.93 17.4 19.7 16.63 19.7 15.75C19.7 14.87 18.93 14.1 18.05 14.1C17.17 14.1 16.4 14.87 16.4 15.75C16.4 16.63 17.17 17.4 18.05 17.4Z" fill="#FF9900"/>
</svg>
