<svg width="24" height="28" viewBox="0 0 24 28" fill="none" xmlns="http://www.w3.org/2000/svg">
<path d="M12 8.57143C14.41 8.57143 16.3636 6.65265 16.3636 4.28571C16.3636 1.91878 14.41 0 12 0C9.59002 0 7.63635 1.91878 7.63635 4.28571C7.63635 6.65265 9.59002 8.57143 12 8.57143Z" fill="white"/>
<path d="M24 10.7141C24 9.53286 23.0209 8.57129 21.8182 8.57129H2.18182C0.979055 8.57129 0 9.53286 0 10.7141C0 11.8954 0.979055 12.857 2.18182 12.857H7.63636V18.357C7.63636 18.9487 8.1248 19.4284 8.72727 19.4284H15.2727C15.8752 19.4284 16.3636 18.9487 16.3636 18.357V12.857H21.8182C23.0209 12.857 24 11.8954 24 10.7141Z" fill="white"/>
<path d="M6.54547 22.6427V24.7856C6.54547 25.3778 7.0334 25.857 7.63638 25.857C8.23936 25.857 8.72729 25.3778 8.72729 24.7856V22.6427C8.72729 22.0505 8.23936 21.5713 7.63638 21.5713C7.0334 21.5713 6.54547 22.0505 6.54547 22.6427Z" fill="white"/>
<path d="M10.9091 22.6427V26.9284C10.9091 27.5206 11.397 27.9999 12 27.9999C12.603 27.9999 13.0909 27.5206 13.0909 26.9284V22.6427C13.0909 22.0505 12.603 21.5713 12 21.5713C11.397 21.5713 10.9091 22.0505 10.9091 22.6427Z" fill="white"/>
<path d="M15.2727 22.6427V24.7856C15.2727 25.3778 15.7606 25.857 16.3636 25.857C16.9666 25.857 17.4545 25.3778 17.4545 24.7856V22.6427C17.4545 22.0505 16.9666 21.5713 16.3636 21.5713C15.7606 21.5713 15.2727 22.0505 15.2727 22.6427Z" fill="white"/>
</svg>
