<svg width="18" height="21" viewBox="0 0 18 21" fill="none" xmlns="http://www.w3.org/2000/svg">
<path d="M8.99978 6.42857C10.8073 6.42857 12.2725 4.98949 12.2725 3.21429C12.2725 1.43908 10.8073 0 8.99978 0C7.1923 0 5.72705 1.43908 5.72705 3.21429C5.72705 4.98949 7.1923 6.42857 8.99978 6.42857Z" fill="#8459FF"/>
<path d="M18 8.03585C18 7.14989 17.2657 6.42871 16.3636 6.42871H1.63636C0.734291 6.42871 0 7.14989 0 8.03585C0 8.92182 0.734291 9.643 1.63636 9.643H5.72727V13.768C5.72727 14.2118 6.0936 14.5716 6.54545 14.5716H11.4545C11.9064 14.5716 12.2727 14.2118 12.2727 13.768V9.643H16.3636C17.2657 9.643 18 8.92182 18 8.03585Z" fill="#8459FF"/>
<path d="M4.90918 16.9823V18.5894C4.90918 19.0336 5.27512 19.393 5.72736 19.393C6.1796 19.393 6.54554 19.0336 6.54554 18.5894V16.9823C6.54554 16.5381 6.1796 16.1787 5.72736 16.1787C5.27512 16.1787 4.90918 16.5381 4.90918 16.9823Z" fill="#8459FF"/>
<path d="M8.18164 16.9823V20.1966C8.18164 20.6407 8.54759 21.0001 8.99982 21.0001C9.45206 21.0001 9.818 20.6407 9.818 20.1966V16.9823C9.818 16.5381 9.45206 16.1787 8.99982 16.1787C8.54759 16.1787 8.18164 16.5381 8.18164 16.9823Z" fill="#8459FF"/>
<path d="M11.4546 16.9823V18.5894C11.4546 19.0336 11.8205 19.393 12.2728 19.393C12.725 19.393 13.091 19.0336 13.091 18.5894V16.9823C13.091 16.5381 12.725 16.1787 12.2728 16.1787C11.8205 16.1787 11.4546 16.5381 11.4546 16.9823Z" fill="#8459FF"/>
</svg>
