<svg width="24" height="24" viewBox="0 0 24 24" fill="none" xmlns="http://www.w3.org/2000/svg">
<path d="M12 0C18.6264 0 24 5.3736 24 12C24 18.6264 18.6264 24 12 24C5.3736 24 0 18.6264 0 12C0 5.3736 5.3736 0 12 0Z" fill="url(#paint0_linear_448_525)"/>
<path d="M16.6075 8.3281C16.4563 8.5081 16.4659 8.9065 16.2235 8.7841C16.2235 8.7841 14.5363 8.1385 15.5755 6.2401C15.8563 5.8009 16.1467 5.7721 16.1035 4.7041C16.3627 5.0977 17.2123 5.8873 17.2795 7.1281C17.3467 7.9561 16.8523 8.0665 16.6075 8.3281Z" fill="white"/>
<path d="M15.2638 11.28C15.679 11.1408 16.351 10.92 16.3918 9.50404C17.0326 10.4856 19.207 11.8632 18.1678 16.08C17.7454 17.724 16.171 18.5232 14.6878 19.128C13.7614 19.5216 12.8158 20.1792 12.4318 21.168C12.4318 21.168 5.42136 20.2824 5.63976 13.32C5.81496 9.70804 9.19897 8.32804 10.6318 5.68804C11.395 4.02245 11.1358 2.35205 11.1358 2.35205C11.1358 2.35205 15.5998 5.12885 13.5838 9.40804C12.9286 10.92 14.4934 11.4312 15.2638 11.28Z" fill="white"/>
<path d="M8.37598 12.5281V14.8561H10.848V17.3281H13.176V14.8561H15.648V12.5281H8.37598Z" fill="url(#paint1_linear_448_525)"/>
<defs>
<linearGradient id="paint0_linear_448_525" x1="0" y1="12" x2="24" y2="12" gradientUnits="userSpaceOnUse">
<stop stop-color="#FFA50D"/>
<stop offset="1" stop-color="#FE5413"/>
</linearGradient>
<linearGradient id="paint1_linear_448_525" x1="8.37598" y1="14.9281" x2="15.648" y2="14.9281" gradientUnits="userSpaceOnUse">
<stop stop-color="#FFA50D"/>
<stop offset="1" stop-color="#FE5413"/>
</linearGradient>
</defs>
</svg>
