<svg width="24" height="24" viewBox="0 0 24 24" fill="none" xmlns="http://www.w3.org/2000/svg">
<circle cx="12" cy="8" r="4" stroke="black" stroke-width="1.5"/>
<path d="M19.25 17C19.25 17.1227 19.1864 17.3294 18.8738 17.6065C18.562 17.8829 18.0682 18.1661 17.3935 18.4191C16.0497 18.923 14.143 19.25 12 19.25C9.85699 19.25 7.95026 18.923 6.60649 18.4191C5.93183 18.1661 5.43796 17.8829 5.12623 17.6065C4.81363 17.3294 4.75 17.1227 4.75 17C4.75 16.8773 4.81363 16.6706 5.12623 16.3935C5.43796 16.1171 5.93183 15.8339 6.60649 15.5809C7.95026 15.077 9.85699 14.75 12 14.75C14.143 14.75 16.0497 15.077 17.3935 15.5809C18.0682 15.8339 18.562 16.1171 18.8738 16.3935C19.1864 16.6706 19.25 16.8773 19.25 17Z" stroke="black" stroke-width="1.5"/>
</svg>
